<svg width="255" height="56" viewBox="0 0 255 56" fill="none" xmlns="http://www.w3.org/2000/svg">
<path fill-rule="evenodd" clip-rule="evenodd" d="M0 31.9832C0 36.8447 3.49623 41.0018 8.2857 41.8352L21.1034 44.0656C42.2069 47.7377 85.2931 56 127.5 56C169.707 56 212.793 47.7377 233.897 44.0656L246.714 41.8352C251.504 41.0018 255 36.8447 255 31.9832V10C255 4.47715 250.523 0 245 0H233.897C212.793 0 169.707 0 127.5 0C85.2931 0 42.2069 0 21.1034 0H10C4.47715 0 0 4.47715 0 10V31.9832Z" fill="#408708" fill-opacity="0.6"/>
</svg>
